<svg xmlns="http://www.w3.org/2000/svg" viewBox="0 0 512 512" fill="none">
  <g transform="rotate(-8 256 256)">
    <path
      d="M92 320C144 283 196 238 252 184C308 130 364 86 420 86C441 86 460 92 479 103C459 121 444 145 436 170C454 182 469 199 478 220C460 235 449 255 446 279C418 285 394 305 373 338C337 393 281 427 214 441C179 449 147 463 114 485L146 435L110 438L150 390L121 387C146 368 171 347 194 321C158 330 125 337 92 348V320Z"
      fill="#FBF7F1"
      stroke="#151E2C"
      stroke-linecap="round"
      stroke-linejoin="round"
      stroke-width="12"
    />
    <path
      d="M258 187C311 137 362 104 414 98C428 96 442 98 455 102C437 121 423 141 415 162C425 166 435 172 445 180C394 177 344 189 296 214C253 236 215 267 181 303C173 305 165 305 157 302C188 271 222 233 258 187Z"
      fill="#EFE5DB"
    />
    <path
      d="M226 278C247 237 294 214 340 223C383 232 416 268 420 313C424 346 412 376 388 400C390 367 378 339 356 318C332 296 299 287 267 295C242 294 226 290 226 278Z"
      fill="#E8DBCF"
      stroke="#151E2C"
      stroke-linecap="round"
      stroke-linejoin="round"
      stroke-width="12"
    />
    <path
      d="M250 286C261 264 287 252 309 260C323 246 348 245 363 257C378 270 382 291 373 309C363 328 341 338 320 335C310 349 292 357 274 352C255 347 241 332 241 314C241 303 244 293 250 286Z"
      fill="#FBF7F1"
      stroke="#151E2C"
      stroke-linecap="round"
      stroke-linejoin="round"
      stroke-width="12"
    />
    <path
      d="M288 293C303 274 329 271 348 284C367 298 372 325 362 345C353 365 332 378 309 377"
      stroke="#C76F35"
      stroke-linecap="round"
      stroke-width="12"
    />
    <path
      d="M39 394L107 410L75 455L21 432L38 414L22 405L39 394Z"
      fill="#FBF7F1"
      stroke="#151E2C"
      stroke-linecap="round"
      stroke-linejoin="round"
      stroke-width="12"
    />
    <path
      d="M416 165L454 172L419 184L407 172L416 165Z"
      fill="#7C7277"
      stroke="#151E2C"
      stroke-linecap="round"
      stroke-linejoin="round"
      stroke-width="12"
    />
    <rect x="367" y="136" width="16" height="28" rx="8" fill="#151E2C" />
  </g>
</svg>
