<?xml version="1.0" encoding="UTF-8" standalone="no"?>
<!-- Created with Inkscape (http://www.inkscape.org/) -->

<svg
   width="1920"
   height="1080"
   viewBox="0 0 508 285.75001"
   version="1.1"
   id="svg1"
   inkscape:version="1.3 (0e150ed6c4, 2023-07-21)"
   sodipodi:docname="hero-bottom.svg"
   xmlns:inkscape="http://www.inkscape.org/namespaces/inkscape"
   xmlns:sodipodi="http://sodipodi.sourceforge.net/DTD/sodipodi-0.dtd"
   xmlns="http://www.w3.org/2000/svg"
   xmlns:svg="http://www.w3.org/2000/svg">
  <sodipodi:namedview
     id="namedview1"
     pagecolor="#505050"
     bordercolor="#ffffff"
     borderopacity="1"
     inkscape:showpageshadow="0"
     inkscape:pageopacity="0"
     inkscape:pagecheckerboard="1"
     inkscape:deskcolor="#d1d1d1"
     inkscape:document-units="mm"
     inkscape:zoom="0.733172"
     inkscape:cx="763.8044"
     inkscape:cy="647.18784"
     inkscape:window-width="1920"
     inkscape:window-height="1009"
     inkscape:window-x="-8"
     inkscape:window-y="-8"
     inkscape:window-maximized="1"
     inkscape:current-layer="layer1" />
  <defs
     id="defs1">
    <rect
       x="876.68387"
       y="836.17702"
       width="187.17401"
       height="38.414071"
       id="rect2" />
  </defs>
  <g
     inkscape:label="Layer 1"
     inkscape:groupmode="layer"
     id="layer1">
    <path
       d="m 507.04227,262.60299 a 273.42351,66.778933 0 0 0 -0.587,-0.34606 273.42351,66.778933 0 0 0 -5.3677,-2.79243 273.42351,66.778933 0 0 0 -5.8895,-2.72897 273.42351,66.778933 0 0 0 -6.3996,-2.65978 273.42351,66.778933 0 0 0 -6.8957,-2.58462 273.42351,66.778933 0 0 0 -7.3768,-2.504 273.42351,66.778933 0 0 0 -7.843,-2.41844 273.42351,66.778933 0 0 0 -8.2915,-2.32711 273.42351,66.778933 0 0 0 -8.7229,-2.23109 273.42351,66.778933 0 0 0 -9.1354,-2.1304 273.42351,66.778933 0 0 0 -9.5281,-2.02496 273.42351,66.778933 0 0 0 -9.9017,-1.91557 273.42351,66.778933 0 0 0 -10.2526,-1.80168 273.42351,66.778933 0 0 0 -10.5829,-1.68423 273.42351,66.778933 0 0 0 -10.8897,-1.56275 273.42351,66.778933 0 0 0 -11.1735,-1.43848 273.42351,66.778933 0 0 0 -11.4339,-1.31095 273.42351,66.778933 0 0 0 -11.6696,-1.18064 273.42351,66.778933 0 0 0 -11.8804,-1.04779 273.42351,66.778933 0 0 0 -12.0659,-0.9124 273.42351,66.778933 0 0 0 -12.2251,-0.77553 273.42351,66.778933 0 0 0 -12.3595,-0.63645 273.42351,66.778933 0 0 0 -12.4659,-0.4969 273.42351,66.778933 0 0 0 -12.547,-0.35548 273.42351,66.778933 0 0 0 -12.6008,-0.21353 273.42351,66.778933 0 0 0 -12.6277,-0.0711 273.42351,66.778933 0 0 0 -35.6887,0.57102 273.42351,66.778933 0 0 0 -35.0785,1.70437 273.42351,66.778933 0 0 0 -33.8672,2.80751 273.42351,66.778933 0 0 0 -32.0771,3.86367 273.42351,66.778933 0 0 0 -29.737699,4.85294 273.42351,66.778933 0 0 0 -26.8904,5.75936 273.42351,66.778933 0 0 0 -23.5815,6.56744 273.42351,66.778933 0 0 0 -19.8706,7.26299 273.42351,66.778933 0 0 0 -15.8186998,7.83435 273.42351,66.778933 0 0 0 -4.07879996,2.9347 v 18.73781 H 507.04227 Z"
       style="fill:#fefefe;fill-opacity:1;stroke-width:1.07527;stroke-linecap:round;stroke-linejoin:bevel;paint-order:stroke fill markers"
       id="path5" />
    <g
       id="g9"
       transform="matrix(0.26458333,0,0,0.26458333,38.013221,38.973708)">
      <rect
         style="fill:#4d3b16;fill-opacity:1;stroke-width:4.06399;stroke-linecap:round;stroke-linejoin:bevel;paint-order:markers fill stroke"
         id="rect5-5"
         width="232.24368"
         height="266.58014"
         x="374.52692"
         y="613.97229"
         ry="50"
         rx="50" />
      <rect
         style="fill:#775100;fill-opacity:1;stroke-width:4.06399;stroke-linecap:round;stroke-linejoin:bevel;paint-order:markers fill stroke"
         id="rect5"
         width="214.67416"
         height="255.39954"
         x="372.7059"
         y="611.55414"
         ry="50"
         rx="49.999996" />
      <circle
         style="fill:#b09906;fill-opacity:1;stroke-width:4.064;stroke-linecap:round;stroke-linejoin:bevel;paint-order:markers fill stroke"
         id="path6"
         cx="487.15497"
         cy="584.586"
         r="57.500259" />
    </g>
    <g
       id="g8-1"
       transform="matrix(0.26458333,0,0,0.26458333,39.091479,35.588285)">
      <rect
         style="fill:#a5a2af;fill-opacity:1;stroke-width:4.064;stroke-linecap:round;stroke-linejoin:bevel;paint-order:markers fill stroke"
         id="rect6-6"
         width="215.62592"
         height="177.2925"
         x="1014.2407"
         y="651.66962"
         rx="96.319656"
         ry="71.875336" />
      <rect
         style="fill:#54525a;fill-opacity:1;stroke-width:4.06401;stroke-linecap:round;stroke-linejoin:bevel;paint-order:markers fill stroke"
         id="rect6-2-2"
         width="79.861412"
         height="75.069809"
         x="-1107.3855"
         y="614.78772"
         rx="96.319656"
         ry="71.875336"
         transform="scale(-1,1)" />
      <rect
         style="fill:#61587c;fill-opacity:1;stroke-width:4.064;stroke-linecap:round;stroke-linejoin:bevel;paint-order:markers fill stroke"
         id="rect6-7-4"
         width="175.61491"
         height="92.913368"
         x="935.23822"
         y="697.83234"
         rx="60.694687"
         ry="25.385422" />
      <path
         d="m 1096.2578,673.40209 v -35.1392 c 49.9738,23.58003 0.1138,-0.26203 50.7676,23.45146"
         style="fill:#d3d339;fill-opacity:1;stroke-width:4.064;stroke-linecap:round;stroke-linejoin:bevel;paint-order:markers fill stroke"
         id="path8-9"
         sodipodi:nodetypes="ccc" />
    </g>
    <rect
       style="fill:#ffffff;fill-opacity:1;stroke:#bababa;stroke-width:1.07526;stroke-linecap:round;stroke-linejoin:bevel;stroke-opacity:1;paint-order:markers fill stroke"
       id="rect12-5-4"
       width="108.95924"
       height="47.452877"
       x="196.69772"
       y="163.81737"
       rx="8.5783663"
       ry="18.403816" />
    <text
       xml:space="preserve"
       style="font-style:normal;font-variant:normal;font-weight:normal;font-stretch:normal;font-size:11.1653px;line-height:1.25;font-family:sans-serif;-inkscape-font-specification:'sans-serif, Normal';font-variant-ligatures:normal;font-variant-caps:normal;font-variant-numeric:normal;font-variant-east-asian:normal;fill:#000000;fill-opacity:1;stroke:none;stroke-width:0.264582"
       x="215.3027"
       y="165.86761"
       id="text9-7-8"
       transform="scale(0.94083282,1.0628881)"><tspan
         sodipodi:role="line"
         id="tspan18"
         x="215.3027"
         y="165.86761"
         style="font-style:italic;font-variant:normal;font-weight:bold;font-stretch:normal;font-family:Consolas;-inkscape-font-specification:'Consolas Bold Italic';stroke-width:0.264582">wHaT a BeAuTiFuL</tspan><tspan
         sodipodi:role="line"
         id="tspan19"
         x="215.3027"
         y="180.32281"
         style="font-style:italic;font-variant:normal;font-weight:bold;font-stretch:normal;font-family:Consolas;-inkscape-font-specification:'Consolas Bold Italic';stroke-width:0.264582">MoCkInGbIrD.Pfft.</tspan><tspan
         sodipodi:role="line"
         id="tspan20"
         x="215.3027"
         y="194.90073"
         style="font-style:normal;font-variant:normal;font-weight:normal;font-stretch:normal;font-family:'Cascadia Code';-inkscape-font-specification:'Cascadia Code';stroke-width:0.264582">Take this<tspan
   style="font-style:normal;font-variant:normal;font-weight:normal;font-stretch:normal;font-family:'Cascadia Code';-inkscape-font-specification:'Cascadia Code';fill:#cb7f00;fill-opacity:1;stroke-width:0.264582"
   id="tspan21"> data</tspan>.</tspan></text>
    <ellipse
       style="fill:#ffffff;fill-opacity:1;stroke:#bababa;stroke-width:1.07527;stroke-linecap:round;stroke-linejoin:bevel;stroke-opacity:1;paint-order:markers fill stroke"
       id="path12-9-6"
       cx="313.40387"
       cy="188.26534"
       rx="4.1835294"
       ry="3.5858824" />
    <ellipse
       style="fill:#ffffff;fill-opacity:1;stroke:#bababa;stroke-width:1.07527;stroke-linecap:round;stroke-linejoin:bevel;stroke-opacity:1;paint-order:markers fill stroke"
       id="path13-0-4"
       cx="323.01349"
       cy="192.90472"
       rx="2.0917647"
       ry="2.2411766" />
    <rect
       style="fill:#3a3a3a;fill-opacity:1;stroke:#000000;stroke-width:0.999996;stroke-linecap:round;stroke-linejoin:bevel;stroke-dasharray:none;stroke-opacity:1;paint-order:markers fill stroke"
       id="rect1"
       width="68.770203"
       height="20.541752"
       x="215.20932"
       y="225.59154"
       ry="0"
       rx="0" />
    <text
       xml:space="preserve"
       transform="matrix(0.40407565,0,0,0.46936491,-137.50618,-165.83388)"
       id="text1"
       style="font-style:normal;font-variant:normal;font-weight:normal;font-stretch:normal;font-size:6.07541px;line-height:1.25;font-family:sans-serif;-inkscape-font-specification:'sans-serif, Normal';font-variant-ligatures:normal;font-variant-caps:normal;font-variant-numeric:normal;font-variant-east-asian:normal;white-space:pre;shape-inside:url(#rect2);display:inline;fill:#000000;fill-opacity:1;stroke:none;stroke-width:0.607541"><tspan
         x="876.68359"
         y="841.72052"
         id="tspan6"><tspan
           style="fill:#ffffff"
           id="tspan1">{&#10;</tspan></tspan><tspan
         x="876.68359"
         y="849.31475"
         id="tspan10"><tspan
           style="fill:#ffffff"
           id="tspan7">  &quot;</tspan><tspan
           style="fill:#2cfd00"
           id="tspan8">id</tspan><tspan
           style="fill:#ffffff"
           id="tspan9">&quot;: &quot;ab0e8d6c-5989-427c-8330-d9ebd7a13be4&quot;,&#10;</tspan></tspan><tspan
         x="876.68359"
         y="856.90899"
         id="tspan14"><tspan
           style="fill:#ffffff"
           id="tspan11">  &quot;</tspan><tspan
           style="fill:#49fd07"
           id="tspan12">quote</tspan><tspan
           style="fill:#ffffff"
           id="tspan13">&quot;: &quot;certified believable enough for demos &quot;,&#10;</tspan></tspan><tspan
         x="876.68359"
         y="864.50323"
         id="tspan22"><tspan
           style="fill:#ffffff"
           id="tspan15">  &quot;</tspan><tspan
           style="fill:#29ff00"
           id="tspan16">author</tspan><tspan
           style="fill:#ffffff"
           id="tspan17">&quot;: &quot;Echo Chirp&quot;&#10;</tspan></tspan><tspan
         x="876.68359"
         y="872.09747"
         id="tspan24"><tspan
           style="fill:#ffffff"
           id="tspan23">}</tspan></tspan></text>
  </g>
</svg>
